<svg version="1.1" id="Layer_1" xmlns="http://www.w3.org/2000/svg" xmlns:xlink="http://www.w3.org/1999/xlink" x="0px" y="0px"
	 viewBox="0 0 78.4 78.4" enable-background="new 0 0 78.4 78.4" xml:space="preserve" fill="#070F29">
<g>
	<ellipse cx="39.3" cy="39.1" rx="9.3" ry="9.1"/>
	<path d="M53.1,35.6c0.4,1.3,0.6,2.6,0.6,4c0,7.7-6.5,14-14.5,14c-8,0-14.5-6.3-14.5-14c0-1.4,0.2-2.7,0.6-4l-4.3,0
		v19.7c0,1,0.8,1.8,1.8,1.8h32.4c1,0,1.8-0.8,1.8-1.8V35.6h0H53.1z"/>
	<path d="M49.9,30.3h5.3c1.2,0,2.1-0.9,2.1-2.1v-5c0-1.2-0.9-2.1-2.1-2.1h-5.3c-1.2,0-2.1,0.9-2.1,2.1v5
		C47.8,29.4,48.7,30.3,49.9,30.3z"/>
	<path d="M39.2,0.7C18,0.7,0.7,17.9,0.7,39.2c0,21.3,17.2,38.5,38.5,38.5c21.2,0,38.5-17.2,38.5-38.5
		C77.7,17.9,60.5,0.7,39.2,0.7z M62.5,56.5c0,3.5-2.7,6-6,6l-34.6,0c-3.3,0-6-2.4-6-6V21.9c0-3.5,2.7-6,6-6h34.6c3.3,0,6,2.4,6,6
		V56.5z"/>
</g>
</svg>
