<svg version="1.1" id="Layer_1" xmlns="http://www.w3.org/2000/svg" xmlns:xlink="http://www.w3.org/1999/xlink" x="0px" y="0px"
	 viewBox="0 0 78.4 78.4" enable-background="new 0 0 78.4 78.4" xml:space="preserve" fill="#070F29">
<g>
	<path d="M38.8,31.5c0.7,0,1.1-0.6,1.1-1.8v-5.4c0-1.2-0.4-1.8-1.1-1.8c-0.7,0-1.1,0.6-1.1,1.8v5.4
		C37.7,30.9,38.1,31.5,38.8,31.5z"/>
	<path d="M35.8,54.1c-0.5,0.7-1,1.1-1.4,1.1c-0.3,0-0.5-0.2-0.5-0.5c0-0.1,0-0.4,0-0.9v-9.3h-2.3v10
		c0,0.9,0.1,1.5,0.2,1.9c0.2,0.6,0.7,0.9,1.5,0.9c0.8,0,1.7-0.5,2.6-1.5V57h2.3V44.4h-2.3V54.1z"/>
	<path d="M44.7,44.3c-0.8,0-1.6,0.5-2.4,1.4v-5.5h-2.3V57h2.3v-1.2c0.8,0.9,1.5,1.4,2.4,1.4c0.9,0,1.5-0.5,1.8-1.4
		c0.2-0.5,0.2-1.4,0.2-2.5v-5c0-1.2-0.1-2-0.2-2.5C46.3,44.8,45.7,44.3,44.7,44.3z M44.5,53.4c0,1.1-0.3,1.7-1,1.7
		c-0.4,0-0.8-0.2-1.1-0.6v-7.7c0.4-0.4,0.8-0.6,1.1-0.6c0.7,0,1,0.6,1,1.7V53.4z"/>
	<polygon points="23.3,42.5 26,42.5 26,57 28.5,57 28.5,42.5 31.2,42.5 31.2,40.1 23.3,40.1 	"/>
	<path d="M52,44.3c-1.2,0-2.1,0.4-2.7,1.3c-0.5,0.6-0.7,1.6-0.7,3V53c0,1.3,0.2,2.3,0.7,3c0.7,0.9,1.6,1.3,2.8,1.3
		c1.2,0,2.1-0.5,2.8-1.4c0.3-0.4,0.5-0.9,0.5-1.4c0-0.2,0-0.7,0-1.5v-0.3h-2.3c0,0.9,0,1.4,0,1.5c-0.1,0.6-0.5,0.9-1,0.9
		c-0.8,0-1.2-0.6-1.2-1.7v-2.2h4.6v-2.6c0-1.3-0.2-2.3-0.7-3C54.1,44.7,53.2,44.3,52,44.3z M53.1,49.3h-2.3v-1.2
		c0-1.2,0.4-1.7,1.1-1.7c0.8,0,1.1,0.6,1.1,1.7V49.3z"/>
	<path d="M39.3,0.7C18.1,0.7,0.9,17.9,0.9,39.2c0,21.3,17.2,38.5,38.5,38.5c21.2,0,38.5-17.2,38.5-38.5
		C77.8,17.9,60.6,0.7,39.3,0.7z M44.1,20.7h2.3v9.4c0,0.5,0,0.8,0,0.9c0.1,0.4,0.2,0.5,0.5,0.5c0.5,0,0.9-0.4,1.5-1.1v-9.7h2.3v12.7
		h-2.3V32c-0.9,1.1-1.8,1.6-2.6,1.6c-0.7,0-1.3-0.3-1.5-0.9c-0.1-0.4-0.2-1-0.2-1.9V20.7z M35.4,24.8c0-1.4,0.2-2.4,0.7-3
		c0.6-0.9,1.5-1.3,2.7-1.3c1.2,0,2.1,0.4,2.7,1.3c0.5,0.6,0.7,1.6,0.7,3v4.5c0,1.4-0.2,2.4-0.7,3c-0.6,0.9-1.5,1.3-2.7,1.3
		c-1.1,0-2-0.4-2.7-1.3c-0.5-0.6-0.7-1.6-0.7-3V24.8z M29.2,16.3l1.8,6.7l1.7-6.7h2.6l-3.1,10.2v6.9h-2.6v-6.9
		c-0.2-1.2-0.7-3-1.6-5.4c-0.5-1.6-1.1-3.2-1.6-4.8H29.2z M57.6,57.8c-0.5,2-2.1,3.5-4.1,3.7C48.8,62,44.1,62,39.3,62
		c-4.7,0-9.5,0-14.1-0.5c-2-0.2-3.6-1.7-4.1-3.7c-0.7-2.9-0.7-6-0.7-8.9c0-2.9,0-6.1,0.7-8.9c0.5-2,2.1-3.5,4.1-3.7
		c4.7-0.5,9.4-0.5,14.1-0.5c4.7,0,9.5,0,14.1,0.5c2,0.2,3.6,1.7,4.1,3.7c0.7,2.9,0.7,6,0.7,8.9C58.2,51.8,58.2,54.9,57.6,57.8z"/>
</g>
</svg>
