<svg version="1.1" id="Layer_1" xmlns="http://www.w3.org/2000/svg" xmlns:xlink="http://www.w3.org/1999/xlink" x="0px" y="0px"
	 viewBox="0 0 78.4 78.4" enable-background="new 0 0 78.4 78.4" xml:space="preserve" fill="#070F29">
<path d="M39.2,0.8C17.9,0.8,0.7,18,0.7,39.2c0,21.3,17.2,38.5,38.5,38.5c21.2,0,38.5-17.2,38.5-38.5
	C77.7,18,60.4,0.8,39.2,0.8z M59.1,42.6h-8.4v22.6H42V42.6h-6v-8.1h6c0,0,0-3.3,0-7c0-5.5,3.5-10.5,11.7-10.5c3.3,0,5.7,0.3,5.7,0.3
	L59.2,25c0,0-2.5,0-5.2,0c-2.9,0-3.4,1.4-3.4,3.6c0,0.3,0,0.4,0,0.4c0,0.6,0,2.2,0,5.6h8.8L59.1,42.6z"/>
</svg>
