<svg version="1.1" id="Layer_1" xmlns="http://www.w3.org/2000/svg" xmlns:xlink="http://www.w3.org/1999/xlink" x="0px" y="0px"
	 viewBox="0 0 78.4 78.4" enable-background="new 0 0 78.4 78.4" xml:space="preserve" fill="#070F29">
<path d="M39,0.4C17.8,0.4,0.5,17.6,0.5,38.9c0,21.3,17.2,38.5,38.5,38.5c21.2,0,38.5-17.2,38.5-38.5
	C77.5,17.6,60.3,0.4,39,0.4z M56.1,31.8c0,0.4,0,0.7,0,1.1c0,11-8.4,23.7-23.7,23.7c-4.7,0-9.1-1.4-12.8-3.7c0.7,0.1,1.3,0.1,2,0.1
	c3.9,0,7.5-1.3,10.4-3.6c-3.7-0.1-6.7-2.5-7.8-5.8c0.5,0.1,1,0.1,1.6,0.1c0.8,0,1.5-0.1,2.2-0.3c-3.8-0.8-6.7-4.1-6.7-8.2
	c0,0,0-0.1,0-0.1c1.1,0.6,2.4,1,3.8,1c-2.2-1.5-3.7-4.1-3.7-6.9c0-1.5,0.4-3,1.1-4.2c4.1,5,10.3,8.4,17.2,8.7
	c-0.1-0.6-0.2-1.2-0.2-1.9c0-4.6,3.7-8.3,8.3-8.3c2.4,0,4.6,1,6.1,2.6c1.9-0.4,3.7-1.1,5.3-2c-0.6,1.9-1.9,3.6-3.7,4.6
	c1.7-0.2,3.3-0.7,4.8-1.3C59.2,29.2,57.8,30.6,56.1,31.8z"/>
</svg>
