<svg width="100px" height="26px" viewBox="0 0 100 26" version="1.1" xmlns="http://www.w3.org/2000/svg" xmlns:xlink="http://www.w3.org/1999/xlink">
    <defs>
        <polygon id="path-1" points="0 0.109458391 0 16.8418012 13.1407505 16.8418012 13.1407505 0.109458391 3.54047618e-20 0.109458391"></polygon>
    </defs>
    <g id="Symbols" stroke="none" stroke-width="1" fill="none" fill-rule="evenodd">
        <g id="Nav/Main/Search-Active" transform="translate(-25.000000, -17.000000)">
            <g id="Page-1" transform="translate(25.000000, 17.000000)">
                <g id="Group-12">
                    <path d="M48.239528,5.4700799 C46.9000147,4.70864976 45.4435959,4.32793468 43.8709249,4.32793468 C42.2976008,4.32793468 40.8457537,4.70864976 39.5160369,5.4700799 C38.1850138,6.23281834 37.1322125,7.26572056 36.3563266,8.57205733 C35.5791345,9.87773994 35.1905385,11.2926655 35.1905385,12.81618 C35.1905385,12.8855198 35.2016412,12.9515889 35.2036006,13.0202746 L35.1905385,13.0202746 L35.1905385,25.9632787 L39.4742383,25.9632787 L39.4742383,20.1642425 L39.4742383,13.244648 L39.4742383,13.0202746 L39.4742383,12.9496265 L39.4742383,12.8312254 C39.4735852,12.8266464 39.472279,12.8214132 39.472279,12.81618 C39.472279,11.9664396 39.6662505,11.1886557 40.0554996,10.4867532 C40.4427894,9.78419654 40.9770274,9.23013183 41.6575602,8.82455907 C42.3367869,8.41898632 43.0741397,8.21554579 43.8709249,8.21554579 C44.68665,8.21554579 45.4292276,8.41898632 46.0993109,8.82455907 C46.768741,9.23013183 47.2977541,9.78419654 47.6856971,10.4867532 C48.0742931,11.1886557 48.2689177,11.9664396 48.2689177,12.81618 C48.2689177,13.6875072 48.0742931,14.4783741 47.6856971,15.190743 C47.2977541,15.9024578 46.768741,16.463064 46.0993109,16.8679826 C45.4370649,17.2683222 44.7036307,17.4691461 43.8996614,17.4737252 L43.8996614,16.4028823 C43.8996614,16.156922 43.7455292,16.0849655 43.5567825,16.2426156 L42.1878795,17.3893399 C41.9991329,17.5476441 41.6908685,17.805379 41.5027749,17.9636832 L40.1332188,19.1104075 C39.9451253,19.2680575 39.9451253,19.5264466 40.1332188,19.6840967 L41.5027749,20.8314751 C41.6908685,20.9891251 41.9991329,21.2475142 42.1878795,21.4051643 L43.5567825,22.5518885 C43.7455292,22.7095386 43.8996614,22.6375821 43.8996614,22.3916219 L43.8996614,21.3332078 C45.4612297,21.3279746 46.908505,20.9485679 48.239528,20.1917168 C49.5796945,19.4302866 50.6429455,18.3960761 51.429281,17.0903935 C52.2156165,15.7840567 52.6081312,14.359973 52.6081312,12.81618 C52.6081312,11.2926655 52.2156165,9.87773994 51.429281,8.57205733 C50.6429455,7.26572056 49.5796945,6.23281834 48.239528,5.4700799" id="Fill-3" fill="#8DC63D"></path>
                    <path d="M73.677351,17.4264956 C73.5983256,17.4788275 73.5081975,17.5272346 73.4213348,17.5762958 C73.3279412,17.6286278 73.2547937,17.6855388 73.1516035,17.7346 C73.0360043,17.7908569 72.9308548,17.8294517 72.8283177,17.8673924 C72.7714978,17.8909418 72.7323116,17.9203785 72.6728793,17.9439279 C71.9721002,18.2180166 71.2948328,18.3547338 70.6391178,18.3547338 C69.2160073,18.3547338 68.5028193,17.7457206 68.5028193,16.5257315 C68.5028193,16.1070758 68.5975192,15.7531809 68.7581824,15.4437681 C69.0409758,14.9982922 69.8906623,14.2211625 72.4462527,14.2211625 L75.4237473,14.2211625 L75.4237473,14.6934585 C75.4237473,14.6934585 75.479261,16.2869669 73.677351,17.4264956 M79.992853,17.2760411 L79.9915468,10.9471437 C79.9915468,6.57742435 77.4124447,4.37228603 72.2535874,4.33172875 C70.7285929,4.33172875 69.3642616,4.53516928 68.1612466,4.94074204 C66.8661442,5.38883452 65.9295951,6.01812644 65.34964,6.8312344 C64.7696849,7.64434235 64.4228875,8.71126036 64.3092476,10.0319884 L68.8783533,10.0319884 C68.9684814,9.26009188 69.3316065,8.66023669 69.9696877,8.233077 C70.4634332,7.8981524 71.0433883,7.70844902 71.7088999,7.66462099 C71.8088246,7.65742535 72.1948082,7.6554629 72.1948082,7.6554629 C74.3624556,7.62929691 75.0684595,8.8172326 75.3022703,9.52240587 C75.3421095,9.68071008 75.421788,10.0391841 75.421788,10.3741087 C75.421788,10.3806502 75.4237473,10.379996 75.4237473,10.3858834 L75.4237473,11.407665 L72.4462527,11.407665 C67.5675764,11.407665 65.769585,12.6126086 65.769585,12.6126086 C64.3921917,13.4983272 63.6959843,14.8694247 63.6959843,16.7389843 C63.6959843,18.2847398 64.3321062,19.4635174 65.6056563,20.2753171 C66.6963376,20.9674074 68.0828743,21.3121442 69.7646135,21.3121442 C72.1889303,21.3121442 73.9601444,20.7652751 75.0743375,19.6728453 C75.160547,19.5897683 75.2415317,19.4766004 75.3042296,19.3797863 L75.3055358,19.3712823 C75.3277413,19.6519125 75.3682336,19.925347 75.4263597,20.1942025 C75.4746893,20.4231549 75.5419589,20.6449116 75.6164126,20.8660142 L80.5590929,20.8660142 C80.3612028,20.5252022 80.2136016,20.060756 80.1306576,19.4360431 C80.0385702,18.7485319 79.992853,18.0289673 79.992853,17.2760411" id="Fill-5" fill="#FFFFFF"></path>
                    <g id="Group-9" transform="translate(0.000000, 4.389294)">
                        <mask id="mask-2" fill="white">
                            <use xlink:href="#path-1"></use>
                        </mask>
                        <g id="Clip-8"></g>
                        <path d="M11.6529828,0.113887446 L11.3525556,0.113887446 C11.1873206,0.108654249 11.017514,0.10734595 10.8431356,0.113887446 C9.25087149,0.113887446 7.96034079,0.317982123 6.96631866,0.726825627 C6.37264842,0.960357036 5.54386125,1.47713522 4.4943254,2.2601523 C4.45056753,2.30398033 4.41138137,2.33865025 4.3669704,2.38444073 C4.32386563,2.40537351 4.2918636,2.42565215 4.27031122,2.44527664 C4.24941193,2.44527664 4.23896229,2.21174523 4.23896229,1.74075752 L4.23896229,0.481519525 L-0.00032655129,0.481519525 L-0.00032655129,16.8418012 L4.4943254,16.8418012 L4.4943254,8.33916459 C4.4943254,5.71994957 6.32627814,4.4109962 9.99083671,4.4109962 C10.5302994,4.4109962 11.0834773,4.44108709 11.6529828,4.501923 L13.1407505,0.354614501 C13.1407505,0.354614501 12.5065878,0.185843903 11.6529828,0.128932887 L11.6529828,0.113887446 Z" id="Fill-7" fill="#FFFFFF" mask="url(#mask-2)"></path>
                    </g>
                    <path d="M18.9640743,11.4560721 C19.0581211,11.1466593 19.1613113,10.8405173 19.318709,10.5559622 C19.7066519,9.85340557 20.2408898,9.29934086 20.9214227,8.8937681 C21.6006494,8.4875412 22.3386553,8.28410067 23.1360936,8.28410067 C23.9524718,8.28410067 24.6943963,8.4875412 25.3651327,8.8937681 C26.0352159,9.29934086 26.564229,9.85340557 26.9521719,10.5559622 C27.1108759,10.8405173 27.2140661,11.1466593 27.3074597,11.4560721 L18.9640743,11.4560721 Z M27.5060029,5.53863477 C26.1658364,4.77655048 24.7094177,4.39583541 23.1360936,4.39583541 C21.5621164,4.39583541 20.1096162,4.77655048 18.7792463,5.53863477 C17.4482232,6.30071907 16.3941156,7.33427544 15.6182298,8.64126635 C14.8410377,9.94694897 14.4517886,11.3618746 14.4517886,12.8866973 C14.4517886,14.4298362 14.8410377,15.8545741 15.6182298,17.161565 C16.3941156,18.4672476 17.4482232,19.5014581 18.7792463,20.2635424 C20.1096162,21.0249725 21.5621164,21.4063418 23.1360936,21.4063418 C24.7094177,21.4063418 26.1658364,21.0249725 27.5060029,20.2635424 C28.8468225,19.5014581 29.9107266,18.4672476 30.6977152,17.161565 C30.9204232,16.7906621 31.0928423,16.405368 31.2469745,16.0141866 L26.379401,16.0141866 C26.0861579,16.3720064 25.7641784,16.6971187 25.3651327,16.9385 C24.6943963,17.3440727 23.9524718,17.5468591 23.1360936,17.5468591 C22.3001223,17.5468591 21.5477481,17.3440727 20.8776649,16.9385 C20.2069285,16.5335813 19.6831402,15.9788625 19.3043407,15.2763058 C19.1920071,15.0689404 19.1312686,14.8360631 19.0528962,14.612344 L31.6845532,14.612344 C31.8008055,14.053046 31.8772185,13.4813193 31.8772185,12.8866973 C31.8772185,11.3618746 31.4847038,9.94694897 30.6977152,8.64126635 C29.9107266,7.33427544 28.8468225,6.30071907 27.5060029,5.53863477 L27.5060029,5.53863477 Z" id="Fill-10" fill="#FFFFFF"></path>
                    <polygon id="Fill-1" fill="#FFFFFF" points="56.0271647 20.8828523 60.4414261 20.8828523 60.4414261 0 56.0271647 0"></polygon>
                    <polygon id="Fill-2" fill="#FFFFFF" points="94.873594 4.41426146 91.0811995 15.2119224 86.9606733 4.41426146 81.8336163 4.41426146 88.8285497 20.7032892 86.6989493 25.9762309 91.5675375 25.9762309 100 4.4155694 100 4.41426146"></polygon>
                </g>
            </g>
        </g>
    </g>
</svg>